<svg width="300" height="200" viewBox="0 0 300 200" fill="none" xmlns="http://www.w3.org/2000/svg">
<g clip-path="url(#clip0_20_288)">
<g clip-path="url(#clip1_20_288)">
<path d="M23.8162 174.786C25.3757 161.339 34.9647 144.607 39.5655 137.913L35.8752 136.382L31.7877 131.034L29.2597 123.962L27.1191 118.421L25.5597 114.788L22.0728 101.999V96.8452L24.2134 90.1604L26.7414 85.3842L34.7129 72.964L40.9312 66.2792L47.7404 60.9314L54.5496 56.3489L61.1651 53.675L73.6115 50.042L85.8641 55.5836H88.9733H93.8356L103.173 57.2984L116 68.5L122 72L119.5 73L117.953 75.0663L120.869 83.2819L124.366 95.8861L125.334 104.867L126.303 113.848L123.194 123.013L118.525 129.698L130.778 135.433L147.302 140.015L158.189 140.781L177.241 139.444L185.212 140.015L191.043 142.495L204.846 153.007L215.152 163.896L224.876 173.827L239.851 181.849C248.597 186.431 254.825 186.247 261.818 186.247C268.821 186.247 276.405 182.808 282.817 178.225C289.229 173.643 290.208 169.06 291.176 163.325C292.145 157.59 288.648 152.629 288.067 151.67C276.405 150.604 268.947 143.203 266.68 139.638L265.567 135.985C265.489 135.937 265.479 135.879 265.518 135.82L265.567 135.985C265.915 136.208 267.62 136.247 272.715 135.249C278.933 134.028 283.989 136.14 285.742 137.351C288.009 139.386 293.21 145.111 295.854 151.68C299.157 159.895 298.576 167.723 296.048 173.652C294.024 178.39 284.967 185.055 280.686 187.787L267.852 191.798L255.406 192.37L242.572 189.89L229.351 184.542L218.077 177.285L214.193 185.695L215.161 190.277L214.58 195.053L211.858 196.768L199.024 197.911L172.582 197.146L158.198 196.768L158.392 194.86L142.837 197.534H135.253L130.778 196.768L129.412 194.472L121.247 195.044L104.141 194.472C103.948 193.707 103.25 192.525 102.001 193.901C100.751 195.276 95.7825 196.129 93.4482 196.381H50.065C49.542 196.187 48.9802 194.927 50.8399 191.411C38.7035 201.196 28.543 198.415 24.9786 195.809C23.9518 194.395 22.2665 188.233 23.8162 174.786Z" fill="white"/>
<path d="M220.072 170.533C231.404 184.203 277.529 209.169 297.811 167.539C291.796 195.528 258.825 192.515 246.757 192.128C240.742 191.963 214.725 176.152 214.725 176.152C214.725 176.152 213.04 162.066 220.072 170.533Z" fill="#E2DDE8"/>
<path d="M26.8479 120.213C23.7678 113.189 20.6877 104.605 21.1429 95.6343C35.5071 51.2144 73.0594 48.1045 73.0594 48.1045C77.6795 49.5577 82.2029 51.3016 86.6003 53.3264C86.6003 53.3264 96.2861 51.2822 101.952 55.6612C107.619 60.0499 113.5 68 121.983 71.6659C119.639 73.7101 115.309 72.3247 115.968 73.3226C116.627 74.3302 128.647 93.9776 125.305 114.294C121.634 124.272 117.305 134.949 107.967 138.262C97.9521 151.932 78.9484 165.573 78.9484 165.573C78.9484 165.573 47.9244 148.26 36.5726 137.254C25.2207 126.249 26.8479 120.213 26.8479 120.213Z" fill="#B896D6"/>
<path d="M61.5331 71.3753C71.1416 68.8855 81.2536 69.1083 90.7361 72.0341C111.667 78.3895 114.544 91.0228 112.694 117.617C104.18 131.955 92.5668 133.757 92.5668 133.757C90.8233 135.966 88.4696 137.623 85.7866 138.524C83.1133 139.415 80.2269 139.512 77.5052 138.795C74.2023 138.204 71.1319 136.673 68.6813 134.387C66.2308 132.1 64.4873 129.145 63.6737 125.89C63.6737 125.89 47.9923 119.535 42.2098 106.717C45.997 88.7655 61.5331 71.3753 61.5331 71.3753Z" fill="white"/>
<path d="M43.2752 106.94C45.1349 98.1629 49.881 89.463 54.2106 82.9236C56.3706 79.6587 58.4143 76.946 59.9059 75.0568C60.6517 74.1074 61.2716 73.3711 61.6978 72.8673C61.9109 72.6154 62.0756 72.4217 62.1918 72.2957C62.2499 72.2279 62.2886 72.1795 62.3177 72.1504C62.3274 72.131 62.3468 72.1213 62.3468 72.1116L62.3564 72.1019C62.3564 72.1019 62.3564 72.1019 61.5331 71.3657C60.7098 70.6294 60.7098 70.6294 60.7098 70.6294L60.7002 70.639C60.6905 70.6487 60.6808 70.6584 60.6614 70.6778C60.6324 70.7165 60.5839 70.765 60.5258 70.8328C60.4096 70.9684 60.2352 71.1719 60.0125 71.4238C59.5766 71.9469 58.947 72.7026 58.1818 73.6714C56.6515 75.5993 54.569 78.3605 52.3703 81.6932C47.9826 88.3295 43.0621 97.3007 41.1249 106.475L43.2752 106.94ZM63.664 125.89C64.0805 124.873 64.0805 124.873 64.0805 124.873C64.0805 124.873 64.0805 124.873 64.0709 124.873C64.0612 124.873 64.0515 124.863 64.0418 124.863C64.0127 124.854 63.974 124.834 63.9159 124.815C63.8093 124.766 63.6447 124.699 63.4316 124.602C63.0054 124.408 62.3855 124.117 61.6203 123.73C60.0899 122.955 57.9978 121.783 55.7216 120.213C51.1499 117.074 45.9776 112.424 43.1977 106.272L41.1928 107.173C44.2148 113.838 49.7648 118.779 54.4818 122.015C56.8549 123.643 59.0342 124.863 60.6227 125.677C61.4169 126.084 62.0659 126.394 62.5211 126.597C62.7439 126.704 62.9279 126.782 63.0538 126.83C63.1119 126.859 63.1604 126.878 63.1991 126.888C63.2185 126.898 63.2282 126.898 63.2379 126.908H63.2476C63.2572 126.908 63.2572 126.908 63.664 125.89ZM69.4175 133.583C67.1219 131.442 65.4947 128.671 64.7295 125.629L62.5986 126.162C63.4606 129.62 65.3106 132.759 67.9162 135.191L69.4175 133.583ZM77.6892 137.71C74.5897 137.158 71.7227 135.724 69.4175 133.573L67.9162 135.181C70.5217 137.613 73.7858 139.24 77.3018 139.87L77.6892 137.71ZM85.438 137.477C82.968 138.301 80.3044 138.398 77.7764 137.729L77.2146 139.86C80.1494 140.626 83.2489 140.529 86.1256 139.56L85.438 137.477ZM91.695 133.079C90.0775 135.123 87.9079 136.654 85.4283 137.477L86.1256 139.56C89.0024 138.601 91.5401 136.818 93.4191 134.435L91.695 133.079ZM111.745 117.055C107.59 124.05 102.708 127.954 98.8917 130.105C96.9835 131.19 95.3273 131.829 94.1746 132.207C93.5935 132.391 93.1382 132.507 92.8283 132.585C92.6733 132.623 92.5571 132.643 92.4893 132.662C92.4505 132.672 92.4215 132.672 92.4118 132.682C92.4021 132.682 92.4021 132.682 92.3924 132.682C92.3924 132.682 92.3924 132.682 92.5668 133.767C92.7314 134.852 92.7314 134.852 92.7411 134.852H92.7508C92.7605 134.852 92.7702 134.852 92.7896 134.842C92.8186 134.832 92.8573 134.832 92.9058 134.823C93.0026 134.803 93.1479 134.774 93.332 134.735C93.6903 134.648 94.2134 134.513 94.8526 134.309C96.1409 133.893 97.9231 133.195 99.9765 132.033C104.093 129.707 109.275 125.541 113.643 118.188L111.745 117.055ZM90.4165 73.0804C100.684 76.1903 106.311 80.7728 109.246 87.661C112.239 94.6655 112.52 104.228 111.6 117.539L113.798 117.694C114.718 104.402 114.496 94.3555 111.28 86.7988C108.006 79.1258 101.73 74.214 91.0655 70.9781L90.4165 73.0804ZM61.8044 72.441C71.2094 69.9996 81.118 70.2225 90.4068 73.0804L91.0558 70.9781C81.3796 67.9942 71.0544 67.7714 61.2523 70.3096L61.8044 72.441ZM42.2001 106.718L41.1249 106.485C41.0765 106.718 41.1056 106.95 41.2024 107.163L42.2001 106.718ZM63.664 125.89L64.7295 125.629C64.6036 125.135 64.1677 124.796 63.664 124.796V125.89ZM77.4955 138.795L77.7764 137.729C77.7473 137.719 77.7183 137.719 77.6892 137.71L77.4955 138.795ZM92.5571 133.757L92.3924 132.672C92.1212 132.711 91.8694 132.856 91.695 133.079L92.5571 133.757ZM112.694 117.617L113.643 118.179C113.73 118.033 113.779 117.869 113.798 117.694L112.694 117.617ZM90.7361 72.0244L90.4165 73.0804L90.7361 72.0244ZM61.5331 71.3753L61.2619 70.3096C61.0488 70.3678 60.8648 70.484 60.7195 70.639L61.5331 71.3753Z" fill="black"/>
<path d="M22.5377 95.5859C22.5377 95.5859 24.2037 104.576 28.204 108.578C31.2163 117.568 38.4613 131.568 51.2273 139.899C59.9931 145.431 69.2722 150.111 78.929 153.87C78.929 153.87 97.6034 141.575 108.607 132.236C114.864 127.043 120.511 121.153 125.431 114.681C125.431 114.681 121.324 130.231 107.619 137.216C99.6665 148.396 89.8935 158.161 78.7062 166.106C78.7062 166.106 53.5713 154.218 41.8901 142.564C30.2089 130.909 26.6445 121.55 26.8964 118.905C21.8887 110.913 22.5377 95.5859 22.5377 95.5859Z" fill="#A67EC9"/>
<path d="M43.2462 149.548L56.5837 134.222C56.5837 134.222 63.9256 132.565 61.9206 143.542C67.6062 144.22 78.5997 143.212 78.3382 147.882C78.0767 152.552 75.8973 154.315 70.9285 154.315C71.2772 157.309 72.2651 163.964 64.2549 162.957C56.2446 161.949 43.2462 149.548 43.2462 149.548Z" fill="white"/>
<path d="M170.684 177.867C170.684 177.867 183.692 178.526 192.37 174.195C195.034 177.867 190.317 181.18 190.317 181.18L170.684 177.867Z" fill="#E2DDE8"/>
<path d="M35.2359 142.564C35.2359 142.564 38.2289 153.22 34.2286 161.882C37.9189 156.66 42.0354 151.748 46.5394 147.214L37.5702 137.933L35.2359 142.564Z" fill="#E2DDE8"/>
<path d="M111.309 144.23C108.965 142.573 101.294 152.222 96.6155 157.551C91.9372 162.879 85.9416 170.213 85.9416 170.213C85.9416 170.213 88.6052 176.869 80.2754 176.869C71.9455 176.869 54.5787 178.913 54.5787 178.913L58.579 168.673C60.4774 168.789 62.3565 168.247 63.9062 167.152C65.4559 166.057 66.5892 164.468 67.1219 162.647C69.1366 162.085 71.2675 162.085 73.2821 162.647L80.6047 166.619C80.6047 166.619 101.943 148.628 107.628 137.303C109.42 139.269 110.679 141.653 111.309 144.23Z" fill="#E2DDE8"/>
<path d="M52.9127 168.198C52.9127 168.198 44.2535 197.514 23.5644 194.201C22.8864 196.865 23.5644 198.851 29.9087 199.181C36.2529 199.51 47.2464 198.851 52.2541 187.526C54.9467 181.674 57.2132 175.638 59.0245 169.457L52.9127 168.198Z" fill="#E2DDE8"/>
<path d="M53.92 183.864C53.92 183.864 53.3292 191.198 69.9502 191.198C86.5712 191.198 97.3032 189.541 104.635 175.871C111.958 162.201 113.314 157.231 114.321 150.217C116.665 161.223 113.992 181.539 106.979 189.144C99.9668 196.749 99.3082 197.466 77.6117 197.786C55.9153 198.105 48.3894 197.417 48.3894 197.417C48.4862 194.947 49.2514 192.544 50.6074 190.471C52.0506 188.475 53.1742 186.237 53.92 183.864Z" fill="#E2DDE8"/>
<path d="M111.27 181.413C111.27 181.413 120.976 183.195 127.32 176.869C127.339 183.234 127.911 189.59 129.044 195.858C129.044 195.858 111.638 196.517 102.369 194.201C105.885 190.336 108.878 186.044 111.27 181.413Z" fill="#E2DDE8"/>
<path d="M155.351 175.861C154.557 181.471 151.941 186.664 147.893 190.636C143.854 194.608 138.604 197.146 132.976 197.844C154.992 197.844 158.344 194.85 158.344 194.85L165.686 179.853C165.695 179.853 160.339 175.202 155.351 175.861Z" fill="#E2DDE8"/>
<path d="M211.723 162.521C212.401 166.512 209.669 182.498 203.393 186.508C204.051 190.829 199.722 196.749 180.699 197.814C207.722 199.859 219.074 200.111 214.231 187.138C219.074 177.508 219.404 169.496 216.411 166.183C213.408 162.87 211.723 162.521 211.723 162.521Z" fill="#E2DDE8"/>
<path d="M62.3371 110.35C60.2643 108.103 58.8308 105.351 58.1721 102.377L56.0218 102.852C56.7677 106.204 58.3852 109.304 60.7195 111.842L62.3371 110.35ZM73.4274 113.063L61.814 110.031L61.2619 112.162L72.8753 115.194L73.4274 113.063ZM87.0071 108.8L72.8269 113.082L73.4662 115.185L87.6463 110.903L87.0071 108.8ZM98.1071 115.388C97.9812 115.379 97.7197 115.32 97.2935 115.136C96.8867 114.962 96.4024 114.72 95.86 114.419C94.7848 113.809 93.5547 113.015 92.3827 112.201C91.2107 111.397 90.1162 110.583 89.3123 109.982C88.9152 109.682 88.5859 109.43 88.3534 109.256C88.2372 109.168 88.15 109.101 88.0919 109.052C88.0628 109.033 88.0434 109.013 88.0241 109.004C88.0144 108.994 88.0144 108.994 88.0047 108.994C88.0047 108.994 88.0047 108.994 87.3267 109.856C86.6487 110.719 86.6487 110.719 86.6487 110.719C86.6487 110.719 86.6487 110.719 86.6584 110.719C86.6584 110.719 86.668 110.728 86.6777 110.738C86.6971 110.748 86.7165 110.767 86.7455 110.796C86.8037 110.845 86.9005 110.912 87.0167 111.009C87.2492 111.193 87.5882 111.445 87.995 111.755C88.8183 112.366 89.9322 113.189 91.1332 114.022C92.3343 114.846 93.6225 115.698 94.7848 116.347C95.366 116.677 95.9278 116.958 96.4411 117.181C96.9351 117.384 97.4678 117.558 97.9618 117.597L98.1071 115.388ZM102.33 110.554C101.458 112.753 99.7537 114.526 97.5937 115.485L98.4848 117.5C101.178 116.309 103.299 114.109 104.374 111.368L102.33 110.554ZM58.1721 102.377C58.0365 101.786 57.4554 101.408 56.8645 101.544C56.2737 101.68 55.8959 102.261 56.0315 102.852L58.1721 102.377ZM61.5331 111.096L60.7195 111.842C60.8648 111.997 61.0488 112.104 61.2522 112.162L61.5331 111.096ZM73.1465 114.129L72.8656 115.194C73.0594 115.243 73.2628 115.243 73.4565 115.185L73.1465 114.129ZM87.3267 109.847L88.0047 108.984C87.7238 108.762 87.3557 108.694 87.0071 108.8L87.3267 109.847ZM98.0393 116.483L97.9618 117.578C98.1362 117.587 98.3202 117.558 98.4848 117.491L98.0393 116.483ZM104.374 111.358C104.597 110.796 104.325 110.157 103.754 109.934C103.192 109.711 102.553 109.982 102.33 110.554L104.374 111.358Z" fill="black"/>
<path d="M92.7217 120.155C91.7725 121.24 90.5133 122.005 89.1186 122.373L89.6707 124.505C91.4916 124.03 93.1285 123.022 94.3683 121.618L92.7217 120.155ZM94.4652 116.309C94.2812 117.733 93.6709 119.07 92.7217 120.155L94.3683 121.608C95.6081 120.203 96.4024 118.45 96.6445 116.59L94.4652 116.309ZM89.1186 122.364C88.5277 122.519 88.179 123.119 88.334 123.71C88.489 124.301 89.0895 124.65 89.6804 124.495L89.1186 122.364ZM96.6445 116.59C96.722 115.989 96.2958 115.437 95.6953 115.359C95.0948 115.282 94.5427 115.708 94.4652 116.309L96.6445 116.59Z" fill="black"/>
<path d="M33.6668 135.704C37.3959 139.793 41.4155 143.59 45.7064 147.088L47.0915 145.383C42.8878 141.963 38.9359 138.233 35.2844 134.232L33.6668 135.704ZM29.7343 102.678C28.1749 106.34 26.0343 111.319 25.86 117.026C25.6856 122.79 27.5163 129.194 33.6862 135.724L35.2844 134.212C29.5116 128.099 27.9037 122.257 28.0587 117.093C28.2136 111.862 30.1799 107.241 31.7587 103.549L29.7343 102.678ZM45.7161 147.088C46.1907 147.475 46.8784 147.398 47.2658 146.933C47.6532 146.458 47.5758 145.77 47.1108 145.383L45.7161 147.088ZM34.4804 134.968L35.294 134.232C35.294 134.222 35.2844 134.222 35.2844 134.222L34.4804 134.968ZM31.7587 103.54C32.0008 102.978 31.7393 102.338 31.1775 102.096C30.6157 101.854 29.9765 102.116 29.7343 102.678L31.7587 103.54Z" fill="black"/>
<path d="M79.3165 165.185L72.0133 160.535L70.8316 162.395L78.1348 167.045L79.3165 165.185ZM108.897 132.342C106.205 140.403 100.654 147.097 94.6686 152.561C88.6827 158.026 82.3481 162.172 78.0863 165.204L79.3649 166.997C83.5395 164.022 90.0387 159.769 96.1506 154.189C102.272 148.599 108.113 141.594 110.98 133.04L108.897 132.342ZM72.0133 160.535C71.4999 160.205 70.8219 160.36 70.4926 160.874C70.1633 161.387 70.3183 162.065 70.8316 162.395L72.0133 160.535ZM78.7256 166.105L78.1348 167.035C78.5125 167.278 78.9968 167.268 79.3649 167.006L78.7256 166.105ZM110.98 133.04C111.173 132.468 110.863 131.839 110.282 131.645C109.711 131.451 109.081 131.761 108.888 132.342L110.98 133.04Z" fill="black"/>
<path d="M52.9127 70.0672C53.5132 70.2028 54.0847 70.4547 54.5884 70.8132L55.8669 69.0209C55.1211 68.488 54.2784 68.1102 53.3873 67.9165L52.9127 70.0672ZM51.0724 70.0285C51.6826 69.9219 52.3025 69.9316 52.9127 70.0672L53.397 67.9165C52.5059 67.713 51.5857 67.6936 50.6849 67.8583L51.0724 70.0285ZM49.3677 70.7066C49.881 70.3675 50.4622 70.135 51.0724 70.0285L50.6849 67.868C49.7841 68.0327 48.9318 68.3718 48.1666 68.8659L49.3677 70.7066ZM48.0601 71.9951C48.4087 71.4817 48.8543 71.0457 49.3677 70.7066L48.1666 68.8659C47.4014 69.3697 46.7428 70.0091 46.2391 70.7648L48.0601 71.9951ZM47.353 73.6906C47.4692 73.0802 47.7114 72.5086 48.0504 71.9951L46.2294 70.7648C45.7161 71.5204 45.3674 72.373 45.193 73.274L47.353 73.6906ZM47.3724 75.5216C47.2464 74.9209 47.2368 74.2912 47.353 73.6906L45.193 73.274C45.0187 74.1653 45.0284 75.0953 45.2124 75.9866L47.3724 75.5216ZM48.0988 77.2073C47.7404 76.7036 47.4983 76.132 47.3724 75.5216L45.2221 75.9769C45.4158 76.8682 45.7742 77.7111 46.2972 78.4668L48.0988 77.2073ZM49.4355 78.4765C48.9124 78.1471 48.4572 77.7208 48.1085 77.2073L46.3069 78.4668C46.8299 79.2128 47.4983 79.8522 48.2731 80.3366L49.4355 78.4765ZM54.5884 70.8132C55.0823 71.162 55.77 71.0554 56.1187 70.5613C56.4674 70.0672 56.3609 69.3794 55.8669 69.0306L54.5884 70.8132ZM48.2635 80.3366C48.7768 80.6563 49.4548 80.5013 49.7841 79.9878C50.1038 79.4743 49.9488 78.7962 49.4355 78.4668L48.2635 80.3366Z" fill="black"/>
<path d="M77.6602 101.738C77.1468 101.631 76.6916 102.271 77.0693 102.639C80.1882 105.197 83.6364 107.309 87.3267 108.926C90.5521 109.014 93.7485 108.258 96.5864 106.718C96.693 106.659 96.7705 106.572 96.8189 106.466C96.8673 106.359 96.8867 106.243 96.8673 106.117C96.8479 106.001 96.7898 105.894 96.7027 105.807C96.6155 105.72 96.5089 105.671 96.3927 105.652L77.6602 101.738Z" fill="black"/>
<path d="M124.443 114.429C121.905 125.251 115.038 132.304 107.367 137.603L108.616 139.415C116.539 133.941 123.872 126.481 126.584 114.933L124.443 114.429ZM116.307 74.3883C122.128 86.9829 124.908 100.769 124.414 114.642L126.613 114.72C127.116 100.507 124.269 86.3822 118.302 73.468L116.307 74.3883ZM107.367 137.603C106.863 137.952 106.737 138.63 107.086 139.134C107.435 139.638 108.113 139.764 108.616 139.415L107.367 137.603ZM125.518 114.681L126.593 114.933C126.613 114.865 126.622 114.788 126.622 114.72L125.518 114.681ZM118.302 73.468C118.05 72.9158 117.392 72.6735 116.84 72.9351C116.288 73.187 116.045 73.8458 116.307 74.398L118.302 73.468Z" fill="black"/>
<path d="M73.0592 48.1044C72.7298 49.1507 72.7298 49.1507 72.7298 49.1507C72.7298 49.1507 72.7298 49.1507 72.7395 49.1507C72.7492 49.1507 72.7589 49.1604 72.7686 49.1604C72.7976 49.1701 72.8461 49.1798 72.9042 49.1992C73.0204 49.2379 73.1948 49.2961 73.4175 49.3639C73.8631 49.5092 74.5024 49.732 75.2966 50.013C76.8851 50.5846 79.0547 51.4081 81.389 52.435C86.1351 54.5276 91.3558 57.3662 93.9807 60.5149L95.6661 59.1004C92.6828 55.5352 87.0262 52.5222 82.2801 50.4296C79.878 49.3736 77.66 48.5307 76.0424 47.9494C75.2288 47.6588 74.5702 47.4359 74.1149 47.2809C73.8825 47.2034 73.7081 47.1453 73.5822 47.1065C73.5241 47.0872 73.4757 47.0678 73.4369 47.0581C73.4175 47.0484 73.4079 47.0484 73.3982 47.0484H73.3885C73.3885 47.0484 73.3885 47.0484 73.0592 48.1044ZM22.1888 95.9733C29.2789 74.0491 42.0643 62.375 53.0287 56.1649C58.5206 53.055 63.5767 51.3112 67.2476 50.3424C69.0783 49.858 70.5699 49.5673 71.5966 49.4026C72.1099 49.3154 72.5071 49.267 72.7686 49.2379C72.9042 49.2186 73.001 49.2089 73.0689 49.2089C73.0979 49.2089 73.127 49.1992 73.1367 49.1992C73.1463 49.1992 73.1463 49.1992 73.156 49.1992C73.156 49.1992 73.156 49.1992 73.0689 48.1044C72.9817 47.0097 72.972 47 72.972 47C72.972 47 72.972 47 72.9623 47C72.9526 47 72.9429 47 72.9333 47C72.9139 47 72.8848 47.0097 72.8461 47.0097C72.7686 47.0194 72.6524 47.029 72.5071 47.0484C72.2165 47.0872 71.7903 47.1453 71.2479 47.2325C70.1631 47.4069 68.6036 47.7072 66.6955 48.211C62.8793 49.2186 57.6392 51.0302 51.9536 54.2467C40.5533 60.6989 27.3708 72.7897 20.0967 95.2951L22.1888 95.9733ZM27.8551 119.777C24.7943 112.782 21.8014 104.392 22.2372 95.6924L20.0385 95.5858C19.5736 104.828 22.7409 113.606 25.8307 120.668L27.8551 119.777ZM93.9904 60.5246C94.3778 60.9896 95.0752 61.0477 95.5401 60.6602C96.0051 60.2727 96.0632 59.5751 95.6757 59.1101L93.9904 60.5246ZM73.0592 48.1044L73.3885 47.0581C73.2529 47.0097 73.1076 46.9903 72.972 47L73.0592 48.1044ZM21.1427 95.6342L20.0967 95.2951C20.0676 95.3823 20.0482 95.4792 20.0482 95.5761L21.1427 95.6342ZM25.8404 120.659C26.0825 121.211 26.7315 121.472 27.2933 121.22C27.8454 120.978 28.1069 120.329 27.8551 119.767L25.8404 120.659Z" fill="black"/>
<path d="M97.6325 83.4661C97.2838 90.829 96.4314 98.1532 95.1045 105.41L97.2644 105.807C98.6108 98.4632 99.4631 91.0325 99.8215 83.5726L97.6325 83.4661ZM95.1045 105.41C94.9979 106.01 95.3951 106.582 95.9859 106.688C96.5767 106.795 97.1579 106.398 97.2644 105.807L95.1045 105.41ZM99.8312 83.5726C99.8602 82.9623 99.3953 82.4488 98.7851 82.4197C98.1749 82.3907 97.6616 82.8557 97.6325 83.4661L99.8312 83.5726Z" fill="black"/>
<path d="M116.791 152.242C116.123 148.705 114.253 144.985 112.607 142.205C111.774 140.8 110.989 139.618 110.408 138.775C110.118 138.359 109.875 138.019 109.711 137.797C109.624 137.68 109.556 137.593 109.517 137.535C109.498 137.506 109.478 137.477 109.469 137.467C109.459 137.458 109.459 137.458 109.459 137.448C109.459 137.448 109.459 137.448 109.459 137.438C109.459 137.438 109.459 137.438 108.587 138.107C107.716 138.775 107.716 138.775 107.716 138.775L107.725 138.785C107.735 138.795 107.754 138.814 107.774 138.843C107.812 138.901 107.88 138.979 107.958 139.085C108.113 139.298 108.345 139.618 108.626 140.015C109.188 140.819 109.943 141.963 110.738 143.309C112.345 146.022 114.05 149.48 114.651 152.639L116.791 152.242ZM112.403 181.79C114.108 176.442 115.542 170.881 116.384 165.766C117.227 160.67 117.489 155.933 116.782 152.232L114.622 152.639C115.251 155.952 115.038 160.399 114.215 165.398C113.391 170.378 111.987 175.822 110.311 181.112L112.403 181.79ZM90.833 198.618C96.0634 198.618 100.596 197.204 104.267 194.346C107.929 191.488 110.66 187.264 112.403 181.79L110.311 181.122C108.665 186.276 106.156 190.083 102.921 192.602C99.6956 195.111 95.6566 196.41 90.833 196.41V198.618ZM48.3797 198.618H90.8427V196.419H48.3797V198.618ZM47.8276 193.048C47.5467 194.501 47.3627 195.974 47.2755 197.456L49.4742 197.582C49.5517 196.196 49.726 194.821 49.9875 193.464L47.8276 193.048ZM109.44 137.428C109.072 136.944 108.384 136.857 107.9 137.225C107.415 137.593 107.328 138.281 107.696 138.765L109.44 137.428ZM115.706 152.445L114.622 152.648L115.706 152.445ZM48.3797 197.514L47.2852 197.446C47.2658 197.747 47.3724 198.047 47.5854 198.27C47.7888 198.493 48.0794 198.618 48.3894 198.618V197.514H48.3797ZM49.9875 193.464C50.1038 192.864 49.7163 192.292 49.1158 192.176C48.5153 192.06 47.9438 192.447 47.8276 193.048L49.9875 193.464Z" fill="black"/>
<path d="M87.6463 176.075C76.8756 174.728 64.0224 175.377 55.0726 178.952L55.8863 180.996C64.3711 177.605 76.8078 176.937 87.3751 178.264L87.6463 176.075ZM55.0726 178.952C54.5109 179.175 54.23 179.814 54.4624 180.386C54.6852 180.948 55.3245 181.229 55.8959 180.996L55.0726 178.952ZM87.3751 178.264C87.9756 178.342 88.5277 177.915 88.6052 177.305C88.6827 176.695 88.2565 176.152 87.6463 176.075L87.3751 178.264Z" fill="black"/>
<path d="M101.894 195.305C101.71 196.39 101.71 196.39 101.71 196.39C101.71 196.39 101.71 196.39 101.72 196.39C101.73 196.39 101.73 196.39 101.739 196.39C101.759 196.39 101.778 196.4 101.807 196.4C101.865 196.41 101.962 196.42 102.078 196.439C102.32 196.468 102.689 196.516 103.183 196.575C104.18 196.681 105.701 196.817 107.861 196.933C112.171 197.165 118.99 197.33 129.063 197.059L129.005 194.86C118.971 195.131 112.219 194.976 107.977 194.743C105.856 194.627 104.364 194.492 103.415 194.395C102.94 194.346 102.592 194.298 102.379 194.269C102.272 194.249 102.185 194.24 102.136 194.23C102.107 194.23 102.098 194.22 102.078 194.22C102.069 194.22 102.069 194.22 102.069 194.22C102.078 194.22 102.078 194.22 101.894 195.305ZM129.073 197.059C129.683 197.04 130.158 196.536 130.138 195.925C130.119 195.315 129.615 194.84 129.005 194.86L129.073 197.059ZM102.078 194.22C101.478 194.114 100.906 194.521 100.809 195.121C100.703 195.722 101.11 196.294 101.71 196.39L102.078 194.22Z" fill="black"/>
<path d="M85.961 168.024L83.7817 175.997L85.9029 176.578L88.0822 168.605L85.961 168.024ZM83.7817 175.997C83.617 176.578 83.9657 177.189 84.5565 177.344C85.1474 177.499 85.7479 177.16 85.9029 176.569L83.7817 175.997ZM88.0822 168.605C88.2469 168.024 87.8982 167.413 87.3073 167.258C86.7262 167.094 86.116 167.442 85.961 168.033L88.0822 168.605Z" fill="black"/>
<path d="M108.936 99.306C104.994 98.56 100.935 98.6665 97.0416 99.6257L97.5647 101.767C101.158 100.885 104.897 100.788 108.529 101.476L108.936 99.306ZM97.0416 99.6257C96.4508 99.771 96.0924 100.362 96.2377 100.953C96.383 101.544 96.9738 101.902 97.5647 101.757L97.0416 99.6257ZM108.529 101.466C109.13 101.583 109.701 101.185 109.817 100.594C109.934 99.9938 109.536 99.4222 108.946 99.306L108.529 101.466Z" fill="black"/>
<path d="M57.7556 188.572C56.7289 191.236 56.0219 194.007 55.6441 196.826L57.8234 197.117C58.1818 194.462 58.8501 191.856 59.809 189.357L57.7556 188.572ZM55.6344 196.836C55.5569 197.437 55.9734 197.989 56.574 198.076C57.1745 198.163 57.7266 197.737 57.8138 197.136L55.6344 196.836ZM59.809 189.367C60.0318 188.795 59.7412 188.165 59.1795 187.942C58.608 187.72 57.9784 188.01 57.7556 188.572L59.809 189.367Z" fill="black"/>
<path d="M101.875 92.7086L106.64 91.7882L106.224 89.6278L101.458 90.5481L101.875 92.7086ZM106.64 91.7882C107.241 91.672 107.628 91.1004 107.512 90.4997C107.396 89.899 106.824 89.5115 106.224 89.6278L106.64 91.7882ZM101.458 90.5578C100.858 90.6741 100.47 91.2457 100.587 91.8464C100.703 92.447 101.274 92.8345 101.875 92.7183L101.458 90.5578Z" fill="black"/>
<path d="M46.2197 196.681C50.1135 194.201 52.7577 189.618 54.8111 184.726C56.8645 179.853 58.4724 174.292 60.0609 169.922L57.9978 169.167C56.3221 173.769 54.8208 179.029 52.7868 183.873C50.7527 188.698 48.3313 192.728 45.038 194.821L46.2197 196.681ZM23.0414 198.309C25.3272 199.549 29.2694 200.304 33.4731 200.198C37.7058 200.091 42.4035 199.103 46.2197 196.681L45.038 194.821C41.6674 196.962 37.3959 197.892 33.415 197.999C29.4147 198.105 25.9084 197.369 24.0971 196.381L23.0414 198.309ZM37.5799 139.017C36.6694 138.407 36.6694 138.407 36.6694 138.407C36.6694 138.407 36.6694 138.407 36.6694 138.417C36.6694 138.417 36.6597 138.426 36.6597 138.436C36.6501 138.456 36.6307 138.475 36.6113 138.514C36.5726 138.581 36.5048 138.678 36.4273 138.795C36.2626 139.046 36.0398 139.415 35.7396 139.88C35.1584 140.829 34.3351 142.205 33.3665 143.949C31.439 147.417 28.9595 152.319 26.7026 158.045C22.2278 169.448 18.6052 184.319 22.5086 197.65L24.6202 197.03C20.9298 184.406 24.3199 170.116 28.7464 158.839C30.9547 153.23 33.3956 148.415 35.2843 145.005C36.2336 143.3 37.0375 141.953 37.5993 141.023C37.8802 140.558 38.1126 140.209 38.2579 139.967C38.3354 139.851 38.3935 139.754 38.4323 139.696C38.4516 139.667 38.471 139.647 38.471 139.628C38.471 139.618 38.4807 139.618 38.4807 139.608C38.5001 139.628 38.5001 139.628 37.5799 139.017ZM60.0609 169.922C60.2643 169.351 59.9737 168.721 59.4022 168.508C58.8308 168.305 58.2012 168.595 57.9881 169.167L60.0609 169.922ZM23.5644 197.349L22.5086 197.659C22.5861 197.94 22.7798 198.173 23.0414 198.318L23.5644 197.349ZM38.5001 139.628C38.8391 139.124 38.7035 138.436 38.1998 138.107C37.6961 137.768 37.0084 137.903 36.6791 138.407L38.5001 139.628Z" fill="black"/>
<path d="M46.7234 144.143C44.3891 146.865 32.6207 159.489 26.8189 176.462L28.9013 177.179C34.5482 160.671 46.0163 148.347 48.3991 145.576L46.7234 144.143ZM54.5496 134.241C51.6632 138.107 49.358 141.052 46.7137 144.143L48.3797 145.576C51.0724 142.438 53.4067 139.444 56.3027 135.559L54.5496 134.241ZM63.4025 138C63.3153 137.032 62.8214 136.15 62.2112 135.443C61.5913 134.726 60.7873 134.106 59.935 133.66C59.0923 133.224 58.1237 132.924 57.1842 132.953C56.2156 132.972 55.2276 133.34 54.5496 134.251L56.3124 135.569C56.5062 135.307 56.787 135.162 57.2326 135.152C57.7072 135.142 58.298 135.297 58.9276 135.617C59.5475 135.937 60.119 136.382 60.5452 136.877C60.981 137.38 61.1844 137.845 61.2135 138.204L63.4025 138ZM62.2596 144.782C63.0345 142.641 63.4219 140.374 63.4122 138.088L61.2135 138.097C61.2232 140.122 60.8745 142.127 60.1868 144.026L62.2596 144.782ZM26.8092 176.462C26.6155 177.034 26.9157 177.663 27.4969 177.857C28.0683 178.051 28.6979 177.751 28.8917 177.169L26.8092 176.462ZM47.5564 144.86L48.3894 145.576L47.5564 144.86ZM55.431 134.9L56.3124 135.559L55.431 134.9ZM62.308 138.097L63.4122 138.088C63.4122 138.058 63.4122 138.02 63.4122 137.991L62.308 138.097ZM60.1868 144.036C59.9834 144.608 60.274 145.237 60.8454 145.441C61.4169 145.644 62.0465 145.354 62.2499 144.782L60.1868 144.036Z" fill="black"/>
<path d="M76.895 144.637C76.401 144.336 75.7521 144.113 75.0934 143.949C74.4154 143.774 73.6212 143.639 72.7978 143.532C71.1319 143.309 69.2044 143.183 67.4028 143.116C65.5915 143.048 63.8675 143.028 62.5986 143.028C61.969 143.028 61.446 143.038 61.0779 143.038C60.8939 143.038 60.7583 143.048 60.6614 143.048C60.613 143.048 60.5742 143.048 60.5549 143.048C60.5452 143.048 60.5355 143.048 60.5258 143.048H60.5161C60.5161 143.048 60.5161 143.048 60.5452 144.152C60.5742 145.257 60.5742 145.257 60.5742 145.257C60.5742 145.257 60.5742 145.257 60.5839 145.257C60.5936 145.257 60.6033 145.257 60.613 145.257C60.6324 145.257 60.6711 145.257 60.7195 145.257C60.8164 145.257 60.952 145.257 61.1263 145.247C61.4847 145.237 61.9884 145.237 62.618 145.237C63.8675 145.237 65.5528 145.247 67.335 145.324C69.1172 145.392 70.9575 145.518 72.5266 145.731C73.3112 145.838 74.0086 145.964 74.5801 146.109C75.1709 146.254 75.5583 146.409 75.7811 146.545L76.895 144.637ZM75.1515 154.858C77.4955 154.47 78.7547 152.28 79.0646 150.294C79.3843 148.299 78.8709 145.838 76.895 144.637L75.7521 146.516C76.6528 147.059 77.1371 148.415 76.895 149.946C76.6528 151.476 75.8005 152.523 74.7931 152.687L75.1515 154.858ZM64.3421 154.325C64.3421 155.429 64.3421 155.429 64.3421 155.429C64.3421 155.429 64.3517 155.429 64.3614 155.429C64.3711 155.429 64.4002 155.429 64.4292 155.429C64.4873 155.429 64.5648 155.429 64.6714 155.429C64.8748 155.429 65.175 155.429 65.5528 155.419C66.2889 155.41 67.3156 155.39 68.4392 155.361C70.6766 155.293 73.3984 155.158 75.1515 154.867L74.7931 152.697C73.2047 152.959 70.6185 153.094 68.3714 153.162C67.2575 153.201 66.2502 153.211 65.5237 153.22C65.1557 153.22 64.8651 153.23 64.6617 153.23C64.5552 153.23 64.4777 153.23 64.4292 153.23C64.4002 153.23 64.3808 153.23 64.3711 153.23C64.3614 153.23 64.3614 153.23 64.3517 153.23C64.3421 153.23 64.3421 153.23 64.3421 154.325ZM60.4968 143.048C59.8865 143.057 59.4119 143.571 59.4216 144.172C59.4313 144.782 59.9447 145.257 60.5452 145.247L60.4968 143.048ZM64.3421 153.23C63.7318 153.23 63.2379 153.724 63.2379 154.334C63.2379 154.945 63.7318 155.439 64.3421 155.439V153.23Z" fill="black"/>
<path d="M67.0541 161.426C64.9716 161.659 63.8965 161.523 63.4025 161.387C63.2766 161.358 63.1991 161.32 63.141 161.3C63.112 161.29 63.0926 161.281 63.0829 161.271C63.0732 161.271 63.0732 161.261 63.0732 161.261C63.0732 161.261 63.0829 161.261 63.0829 161.271C63.0926 161.281 63.1023 161.29 63.1216 161.31C63.141 161.329 63.1507 161.349 63.1701 161.378C63.1798 161.387 63.1894 161.407 63.1991 161.416C63.2088 161.426 63.2088 161.436 63.2185 161.436L63.2282 161.445C63.2282 161.445 63.2282 161.445 63.2282 161.455C63.2282 161.455 63.2282 161.455 62.2886 162.027C61.3491 162.589 61.3491 162.589 61.3491 162.598C61.3491 162.598 61.3491 162.598 61.3491 162.608L61.3588 162.618C61.3685 162.627 61.3685 162.637 61.3782 162.647C61.3879 162.666 61.4072 162.686 61.4169 162.705C61.446 162.744 61.4847 162.782 61.5235 162.831C61.6009 162.918 61.6978 163.005 61.8237 163.083C62.0659 163.247 62.3952 163.402 62.8311 163.519C63.6931 163.751 65.0685 163.858 67.2963 163.616L67.0541 161.426ZM68.6813 160.835C68.1874 161.155 67.6256 161.358 67.0347 161.426L67.2963 163.606C68.2067 163.499 69.0882 163.18 69.863 162.686L68.6813 160.835ZM69.9115 159.595C69.6015 160.099 69.185 160.525 68.691 160.835L69.8727 162.686C70.6476 162.191 71.2965 161.523 71.7808 160.738L69.9115 159.595ZM70.4636 157.948C70.4054 158.529 70.2117 159.101 69.9115 159.595L71.7808 160.748C72.2651 159.963 72.5557 159.082 72.6526 158.171L70.4636 157.948ZM70.2505 156.214C70.4539 156.766 70.5314 157.357 70.4636 157.938L72.6526 158.161C72.7397 157.251 72.6235 156.32 72.3136 155.458L70.2505 156.214ZM63.2379 161.465C62.9279 160.942 62.2499 160.777 61.7269 161.087C61.2038 161.397 61.0392 162.075 61.3491 162.598L63.2379 161.465ZM67.1703 162.521L67.2866 163.616H67.2963L67.1703 162.521ZM72.3136 155.458C72.1005 154.887 71.4709 154.596 70.8994 154.799C70.3279 155.013 70.0374 155.642 70.2408 156.214L72.3136 155.458Z" fill="black"/>
<path d="M67.4028 163.422C66.3083 163.461 66.3083 163.461 66.3083 163.461C66.3083 163.461 66.3083 163.461 66.3083 163.47C66.3083 163.48 66.3083 163.499 66.3083 163.519C66.3083 163.567 66.3083 163.645 66.2986 163.742C66.2792 163.945 66.2405 164.236 66.1533 164.585C65.979 165.272 65.6109 166.096 64.8748 166.774C63.4509 168.082 60.1384 169.254 52.3896 166.493L51.6535 168.566C59.6444 171.415 64.0224 170.543 66.3664 168.402C67.5093 167.355 68.0421 166.106 68.2842 165.146C68.4101 164.662 68.4682 164.245 68.4876 163.935C68.4973 163.78 68.507 163.654 68.507 163.567C68.507 163.519 68.507 163.48 68.507 163.461C68.507 163.451 68.507 163.432 68.507 163.422V163.412C68.4973 163.383 68.4973 163.383 67.4028 163.422ZM52.38 166.483C51.8085 166.28 51.1789 166.58 50.9755 167.152C50.7721 167.723 51.0724 168.353 51.6438 168.557L52.38 166.483ZM68.4973 163.383C68.4779 162.773 67.9646 162.298 67.3544 162.327C66.7442 162.347 66.2695 162.86 66.2986 163.47L68.4973 163.383Z" fill="black"/>
<path d="M74.6285 91.6912C75.6358 92.1271 75.6358 92.1271 75.6358 92.1271V92.1174C75.6358 92.1078 75.6455 92.0981 75.6455 92.0884C75.6552 92.069 75.6649 92.0303 75.6843 91.9915C75.7133 91.914 75.7521 91.8074 75.7908 91.6718C75.878 91.4102 75.9748 91.0324 76.0523 90.5674C76.2073 89.6567 76.2654 88.3875 75.8877 86.9828C75.1128 84.086 72.5848 80.9955 66.2986 79.2032L65.6981 81.3152C71.4515 82.9622 73.2434 85.5877 73.7664 87.5447C74.0376 88.5716 73.9989 89.5114 73.8827 90.1992C73.8246 90.548 73.7471 90.8192 73.6986 91.0033C73.6696 91.0905 73.6502 91.168 73.6308 91.2068C73.6212 91.2261 73.6212 91.2455 73.6115 91.2455V91.2552C73.6115 91.2649 73.6115 91.2649 74.6285 91.6912ZM59.2376 87.6706C64.497 88.0484 68.1874 89.2982 70.541 90.422C71.7227 90.9839 72.5654 91.5168 73.1078 91.9043C73.379 92.0981 73.5727 92.2531 73.6986 92.3596C73.7568 92.4081 73.8052 92.4468 73.8342 92.4759C73.8439 92.4856 73.8536 92.4953 73.8633 92.4953C73.8633 92.4953 73.8633 92.4953 74.6285 91.7009C75.3937 90.9064 75.3937 90.9064 75.3937 90.9064C75.3937 90.9064 75.3937 90.9064 75.384 90.8968C75.384 90.8968 75.3743 90.8871 75.3646 90.8774C75.3549 90.8677 75.3356 90.8483 75.3065 90.8289C75.2581 90.7902 75.2 90.7321 75.1128 90.6642C74.9481 90.5286 74.706 90.3348 74.3863 90.112C73.7471 89.6567 72.7882 89.056 71.4903 88.436C68.8944 87.1959 64.9329 85.8783 59.3926 85.4811L59.2376 87.6706ZM66.3083 79.2032C65.7271 79.0385 65.1169 79.3776 64.9523 79.9589C64.7876 80.5402 65.1266 81.1505 65.7078 81.3152L66.3083 79.2032ZM74.6285 91.6912L73.8633 92.4856C74.1248 92.7375 74.4929 92.8441 74.8416 92.7666C75.2 92.6987 75.4905 92.4565 75.6358 92.1174L74.6285 91.6912ZM59.3926 85.4714C58.7824 85.423 58.2593 85.888 58.2206 86.4887C58.1721 87.099 58.6371 87.6222 59.2376 87.6609L59.3926 85.4714Z" fill="black"/>
<path d="M62.2693 91.6428C62.0368 90.7031 62.0465 89.7149 62.2983 88.7751L60.1771 88.2035C59.8284 89.5018 59.8091 90.8678 60.1287 92.1757L62.2693 91.6428ZM63.6253 94.1714C62.9667 93.4545 62.5017 92.5826 62.2693 91.6428L60.1287 92.166C60.4483 93.4739 61.0973 94.6752 62.0078 95.6634L63.6253 94.1714ZM62.2983 88.7655C62.4533 88.1745 62.1143 87.5738 61.5235 87.4188C60.9326 87.2638 60.3321 87.6029 60.1771 88.1939L62.2983 88.7655ZM62.0174 95.6634C62.4339 96.109 63.1216 96.1381 63.5672 95.7215C64.0127 95.3049 64.0418 94.6171 63.6253 94.1714L62.0174 95.6634Z" fill="black"/>
<path d="M70.8026 95.1594C69.4756 95.9344 67.8871 96.1476 66.4052 95.76L65.8531 97.8914C67.9065 98.4243 70.0858 98.1336 71.9164 97.0679L70.8026 95.1594ZM73.4952 91.6329C73.0981 93.1152 72.1295 94.3843 70.8026 95.1497L71.9067 97.0486C73.7374 95.9829 75.074 94.239 75.6261 92.1948L73.4952 91.6329ZM66.4052 95.7504C65.8143 95.5953 65.2138 95.9441 65.0588 96.5351C64.9038 97.1261 65.2525 97.7267 65.8434 97.8817L66.4052 95.7504ZM75.6261 92.2045C75.7811 91.6135 75.4324 91.0129 74.8513 90.8579C74.2604 90.7029 73.6599 91.0516 73.5049 91.6329L75.6261 92.2045Z" fill="black"/>
<path d="M67.9936 93.4739C69.0397 93.4739 69.8824 92.6311 69.8824 91.5847C69.8824 90.5481 69.0397 89.6956 67.9936 89.6956C66.9476 89.6956 66.1049 90.5384 66.1049 91.5847C66.1049 92.6311 66.9476 93.4739 67.9936 93.4739Z" fill="black"/>
<path d="M58.6177 95.0723C61.0779 95.4792 63.4316 96.3899 65.5237 97.7366L66.7151 95.8861C64.3711 94.3748 61.7268 93.3575 58.976 92.9022L58.6177 95.0723ZM65.5334 97.7463C66.0468 98.0756 66.7248 97.9303 67.0541 97.4169C67.3834 96.9034 67.2381 96.2252 66.7248 95.8958L65.5334 97.7463ZM58.976 92.9022C58.3755 92.8053 57.8137 93.2122 57.7072 93.8129C57.6103 94.4135 58.0171 94.9755 58.6177 95.082L58.976 92.9022Z" fill="black"/>
<path d="M122.806 70.8422C121.508 71.5591 119.368 71.966 117.401 72.1792C116.452 72.2857 115.58 72.3342 114.961 72.3536C114.651 72.3633 114.399 72.3729 114.224 72.3729C114.137 72.3729 114.069 72.3729 114.031 72.3729C114.011 72.3729 113.992 72.3729 113.982 72.3729C113.973 72.3729 113.973 72.3729 113.973 72.3729C113.973 72.3729 113.973 72.3729 113.973 73.4774C113.973 74.5818 113.973 74.5818 113.973 74.5818C113.973 74.5818 113.982 74.5818 113.992 74.5818C114.002 74.5818 114.021 74.5818 114.05 74.5818C114.099 74.5818 114.176 74.5818 114.263 74.5818C114.447 74.5818 114.718 74.5721 115.048 74.5625C115.706 74.5334 116.627 74.4849 117.634 74.3687C119.61 74.1556 122.148 73.7293 123.872 72.7702L122.806 70.8422ZM102.572 55.4091C101.778 56.1648 101.778 56.1648 101.778 56.1648C101.778 56.1648 101.778 56.1648 101.788 56.1744C101.797 56.1841 101.807 56.1938 101.817 56.2035C101.846 56.2326 101.885 56.2713 101.943 56.3295C102.049 56.436 102.204 56.6007 102.408 56.8042C102.805 57.2111 103.386 57.802 104.103 58.5093C105.536 59.9237 107.512 61.8323 109.711 63.7893C111.9 65.7463 114.321 67.7711 116.627 69.4181C118.903 71.0457 121.179 72.3826 123.077 72.8573L123.61 70.726C122.148 70.3578 120.152 69.234 117.905 67.6258C115.687 66.0466 113.333 64.0799 111.173 62.1423C109.013 60.2144 107.057 58.3349 105.652 56.9398C104.945 56.2423 104.374 55.661 103.977 55.2638C103.783 55.0603 103.628 54.9053 103.522 54.7987C103.473 54.7503 103.434 54.7019 103.405 54.6825C103.396 54.6728 103.386 54.6631 103.376 54.6534L103.367 54.6437C103.367 54.6534 103.367 54.6534 102.572 55.4091ZM86.4453 54.5856C91.7725 54.0818 97.1579 54.7115 102.214 56.4554L102.931 54.3725C97.5744 52.5317 91.8791 51.8536 86.2322 52.3961L86.4453 54.5856ZM113.963 72.3826C113.353 72.3826 112.859 72.8767 112.859 73.4871C112.859 74.0974 113.353 74.5915 113.963 74.5915V72.3826ZM123.339 71.8013L123.872 72.7605C124.269 72.5376 124.482 72.1017 124.424 71.656C124.366 71.2104 124.036 70.8422 123.6 70.7357L123.339 71.8013ZM102.572 55.4091V56.5135C103.105 56.5135 103.57 56.126 103.657 55.5932C103.744 55.0603 103.434 54.5468 102.931 54.3725L102.572 55.4091ZM86.2322 52.3961C85.6317 52.4542 85.1861 52.9871 85.2442 53.5974C85.3023 54.1981 85.8351 54.6437 86.4453 54.5856L86.2322 52.3961Z" fill="black"/>
<path d="M160 177.809C161.249 178.729 162.644 179.417 164.136 179.863L164.756 177.751C163.516 177.383 162.344 176.801 161.298 176.036L160 177.809ZM157.075 157.745C155.98 157.667 155.98 157.667 155.98 157.667V157.677C155.98 157.687 155.98 157.696 155.98 157.716C155.98 157.745 155.98 157.793 155.971 157.851C155.961 157.968 155.951 158.142 155.942 158.355C155.922 158.791 155.903 159.411 155.883 160.167C155.854 161.678 155.874 163.742 156.029 165.941C156.193 168.13 156.503 170.485 157.075 172.558C157.646 174.602 158.518 176.559 159.923 177.76L161.346 176.084C160.446 175.319 159.719 173.895 159.186 171.967C158.663 170.087 158.363 167.888 158.208 165.776C158.053 163.664 158.043 161.678 158.063 160.206C158.072 159.469 158.102 158.869 158.121 158.452C158.131 158.249 158.14 158.084 158.15 157.977C158.15 157.919 158.16 157.88 158.16 157.851C158.16 157.842 158.16 157.832 158.16 157.822V157.813C158.179 157.822 158.179 157.822 157.075 157.745ZM164.136 179.863C164.717 180.037 165.327 179.708 165.502 179.117C165.676 178.535 165.347 177.925 164.756 177.751L164.136 179.863ZM160.649 176.927L159.932 177.76C159.952 177.78 159.971 177.789 159.99 177.809L160.649 176.927ZM158.179 157.822C158.218 157.212 157.763 156.689 157.162 156.65C156.552 156.611 156.029 157.067 155.99 157.667L158.179 157.822Z" fill="black"/>
<path d="M294.857 145.605C293.385 143.503 291.196 139.521 287.67 136.663C284.038 133.728 279.001 131.965 271.843 133.989L272.444 136.101C278.894 134.28 283.195 135.869 286.294 138.368C289.501 140.955 291.409 144.491 293.055 146.855L294.857 145.605ZM299.409 168.983C300.998 160.913 299.37 152.532 294.876 145.634L293.036 146.836C297.211 153.259 298.721 161.048 297.249 168.556L299.409 168.983ZM274.41 192.36C285.82 188.901 296.842 181.074 299.399 169.002L297.249 168.547C294.925 179.494 284.813 186.915 273.771 190.258L274.41 192.36ZM218.89 178.38C218.193 179.233 218.193 179.233 218.193 179.233C218.193 179.233 218.193 179.233 218.203 179.233C218.203 179.233 218.212 179.242 218.222 179.242C218.232 179.252 218.261 179.272 218.28 179.291C218.338 179.33 218.416 179.397 218.522 179.475C218.735 179.64 219.036 179.872 219.433 180.163C220.227 180.754 221.399 181.577 222.881 182.536C225.854 184.455 230.126 186.915 235.298 189.105C245.643 193.474 259.716 196.797 274.41 192.341L273.771 190.238C259.765 194.492 246.243 191.343 236.16 187.08C231.124 184.949 226.968 182.546 224.072 180.686C222.629 179.756 221.496 178.952 220.731 178.39C220.353 178.109 220.053 177.886 219.859 177.731C219.762 177.654 219.685 177.595 219.646 177.557C219.626 177.537 219.607 177.528 219.597 177.518C219.588 177.518 219.588 177.508 219.588 177.508C219.578 177.528 219.588 177.528 218.89 178.38ZM271.843 133.989C271.262 134.154 270.923 134.764 271.088 135.346C271.252 135.927 271.862 136.266 272.444 136.101L271.843 133.989ZM293.956 146.235L294.876 145.634C294.867 145.625 294.866 145.615 294.857 145.605L293.956 146.235ZM298.324 168.77L299.399 169.002C299.399 168.992 299.399 168.992 299.399 168.983L298.324 168.77ZM274.09 191.304L273.771 190.248L274.09 191.304ZM219.588 177.528C219.113 177.14 218.425 177.218 218.038 177.683C217.65 178.157 217.728 178.845 218.193 179.233L219.588 177.528Z" fill="black"/>
<path d="M215.219 187.642C217.108 183.747 218.687 179.717 219.936 175.58L217.835 174.941C216.614 178.971 215.074 182.895 213.243 186.683L215.219 187.642ZM210.434 199.287C212.74 199.064 214.338 198.154 215.306 196.778C216.246 195.441 216.488 193.823 216.459 192.37C216.43 190.907 216.12 189.502 215.83 188.485C215.684 187.971 215.539 187.545 215.432 187.235C215.374 187.08 215.336 186.964 215.297 186.877C215.277 186.838 215.268 186.799 215.258 186.78C215.258 186.77 215.248 186.76 215.248 186.751V186.741C215.248 186.741 215.248 186.741 214.231 187.167C213.214 187.594 213.214 187.594 213.214 187.594C213.214 187.594 213.214 187.603 213.224 187.613C213.234 187.632 213.243 187.652 213.253 187.69C213.282 187.758 213.321 187.855 213.369 187.991C213.466 188.252 213.592 188.63 213.718 189.086C213.98 190.006 214.241 191.217 214.26 192.409C214.28 193.62 214.067 194.705 213.505 195.509C212.972 196.264 212.023 196.923 210.231 197.098L210.434 199.287ZM157.898 197.96C157.84 199.055 157.84 199.055 157.84 199.055C157.84 199.055 157.84 199.055 157.85 199.055C157.85 199.055 157.859 199.055 157.869 199.055C157.888 199.055 157.908 199.055 157.947 199.055C158.014 199.055 158.121 199.064 158.247 199.074C158.508 199.084 158.905 199.103 159.409 199.132C160.416 199.181 161.879 199.248 163.69 199.316C167.303 199.461 172.291 199.636 177.812 199.772C188.825 200.023 201.988 200.082 210.434 199.277L210.221 197.088C201.921 197.882 188.874 197.824 177.851 197.572C172.35 197.446 167.371 197.262 163.768 197.117C161.966 197.039 160.513 196.981 159.506 196.933C159.002 196.914 158.615 196.894 158.344 196.875C158.208 196.865 158.111 196.865 158.043 196.855C158.014 196.855 157.985 196.855 157.966 196.855C157.956 196.855 157.947 196.855 157.947 196.855C157.956 196.865 157.956 196.865 157.898 197.96ZM166.451 177.489C165.124 178.535 163.894 180.182 162.79 182.013C161.676 183.864 160.659 185.985 159.797 188.059C158.925 190.132 158.208 192.186 157.685 193.91C157.181 195.596 156.842 197.059 156.794 197.911L158.993 198.028C159.022 197.466 159.283 196.235 159.797 194.55C160.291 192.903 160.988 190.926 161.831 188.911C162.673 186.896 163.642 184.881 164.678 183.147C165.724 181.393 166.8 180.017 167.817 179.223L166.451 177.489ZM191.934 180.444C182.471 177.402 172.902 176.268 166.954 177.276L167.323 179.446C172.785 178.526 181.968 179.562 191.266 182.546L191.934 180.444ZM219.936 175.58C220.111 174.999 219.781 174.389 219.2 174.205C218.619 174.03 218.009 174.36 217.825 174.941L219.936 175.58ZM214.231 187.167L213.243 186.683C213.108 186.964 213.098 187.293 213.224 187.594L214.231 187.167ZM210.328 198.192L210.221 197.098L210.328 198.192ZM157.898 197.96L156.804 197.902C156.775 198.512 157.24 199.026 157.85 199.055L157.898 197.96ZM167.129 178.351L166.945 177.266C166.761 177.295 166.596 177.373 166.451 177.489L167.129 178.351ZM191.256 182.536C191.838 182.72 192.457 182.401 192.641 181.829C192.826 181.248 192.506 180.628 191.934 180.444L191.256 182.536Z" fill="black"/>
<path d="M129.412 198.502C131.184 199.481 133.955 199.8 136.88 199.81C139.873 199.82 143.253 199.52 146.42 199.113C149.588 198.706 152.561 198.202 154.75 197.795C155.845 197.592 156.736 197.417 157.356 197.282C157.666 197.214 157.908 197.165 158.073 197.127C158.16 197.107 158.218 197.098 158.266 197.088C158.286 197.088 158.305 197.078 158.315 197.078C158.324 197.078 158.324 197.078 158.324 197.078C158.324 197.078 158.324 197.078 158.092 196.003C157.859 194.927 157.859 194.927 157.859 194.927H157.85C157.84 194.927 157.821 194.937 157.801 194.937C157.763 194.947 157.695 194.956 157.617 194.976C157.453 195.015 157.22 195.063 156.91 195.121C156.3 195.247 155.419 195.421 154.343 195.625C152.193 196.032 149.258 196.526 146.14 196.923C143.021 197.32 139.737 197.611 136.889 197.601C133.974 197.592 131.717 197.253 130.477 196.574L129.412 198.502ZM128.995 172.558C128.298 173.042 127.823 173.827 127.475 174.66C127.116 175.512 126.855 176.539 126.651 177.654C126.254 179.891 126.109 182.633 126.177 185.356C126.245 188.078 126.526 190.839 126.99 193.116C127.223 194.259 127.514 195.296 127.853 196.177C128.192 197.03 128.618 197.814 129.189 198.347L130.681 196.729C130.468 196.536 130.187 196.109 129.896 195.363C129.615 194.646 129.354 193.736 129.141 192.67C128.705 190.548 128.434 187.923 128.366 185.297C128.298 182.672 128.443 180.085 128.811 178.041C128.995 177.014 129.228 176.152 129.499 175.503C129.78 174.825 130.051 174.495 130.235 174.369L128.995 172.558ZM159.312 175.619C159.496 174.534 159.496 174.534 159.496 174.534H159.487C159.477 174.534 159.458 174.534 159.438 174.524C159.4 174.515 159.332 174.505 159.254 174.495C159.09 174.466 158.847 174.427 158.537 174.379C157.918 174.272 157.026 174.137 155.932 173.962C153.743 173.623 150.74 173.197 147.486 172.819C144.241 172.441 140.735 172.122 137.558 171.996C134.4 171.87 131.465 171.938 129.393 172.393L129.857 174.544C131.64 174.156 134.332 174.069 137.471 174.195C140.58 174.321 144.018 174.631 147.234 175.009C150.45 175.377 153.423 175.803 155.603 176.132C156.687 176.297 157.579 176.443 158.189 176.539C158.499 176.588 158.731 176.627 158.896 176.656C158.973 176.665 159.041 176.675 159.08 176.685C159.099 176.685 159.119 176.694 159.128 176.694C159.138 176.694 159.138 176.694 159.138 176.694C159.128 176.694 159.128 176.694 159.312 175.619ZM158.334 197.078C158.925 196.952 159.303 196.361 159.167 195.77C159.041 195.179 158.45 194.801 157.859 194.937L158.334 197.078ZM129.945 197.533L129.199 198.338C129.267 198.396 129.334 198.454 129.412 198.493L129.945 197.533ZM129.615 173.468L129.383 172.393C129.247 172.422 129.112 172.48 128.995 172.567L129.615 173.468ZM159.128 176.694C159.729 176.801 160.3 176.394 160.397 175.803C160.494 175.212 160.097 174.631 159.506 174.534L159.128 176.694Z" fill="black"/>
<path d="M129.102 184.145L135.427 184.658L135.601 182.469L129.276 181.955L129.102 184.145ZM135.417 184.658C136.027 184.707 136.55 184.261 136.599 183.651C136.647 183.04 136.202 182.517 135.592 182.469L135.417 184.658ZM129.276 181.955C128.666 181.907 128.143 182.352 128.095 182.963C128.046 183.563 128.492 184.096 129.102 184.145L129.276 181.955Z" fill="black"/>
<path d="M128.521 193.62L135.253 193.436L135.194 191.236L128.463 191.42L128.521 193.62ZM135.253 193.436C135.863 193.416 136.337 192.912 136.318 192.302C136.299 191.692 135.795 191.217 135.185 191.236L135.253 193.436ZM128.463 191.42C127.853 191.44 127.378 191.944 127.397 192.554C127.417 193.164 127.92 193.639 128.531 193.62L128.463 191.42Z" fill="black"/>
<path d="M168.407 189.783L165.492 197.262L167.545 198.057L170.461 190.578L168.407 189.783ZM165.492 197.253C165.269 197.815 165.55 198.454 166.121 198.677C166.693 198.9 167.323 198.619 167.545 198.047L165.492 197.253ZM170.461 190.578C170.684 190.016 170.403 189.376 169.831 189.154C169.269 188.931 168.63 189.212 168.407 189.783L170.461 190.578Z" fill="black"/>
<path d="M272.666 136.595C274.817 137.012 276.822 137.962 278.497 139.357L279.902 137.661C277.936 136.024 275.592 134.919 273.073 134.435L272.666 136.595ZM266.225 136.993C268.308 136.315 270.526 136.179 272.666 136.595L273.083 134.435C270.574 133.951 267.978 134.115 265.547 134.9L266.225 136.993ZM289.21 150.566C280.58 148.822 275.398 146.322 272.192 143.668C269.015 141.042 267.698 138.213 266.942 135.636L264.831 136.256C265.673 139.134 267.184 142.389 270.787 145.363C274.371 148.318 279.931 150.934 288.774 152.716L289.21 150.566ZM272.657 186.111C283.011 182.41 289.055 176.656 291.622 170.233C294.188 163.819 293.22 156.921 289.946 151.099L288.028 152.174C291.031 157.522 291.854 163.712 289.578 169.409C287.302 175.096 281.849 180.483 271.911 184.028L272.657 186.111ZM218.377 168.198C217.612 168.983 217.612 168.983 217.612 168.983C217.612 168.983 217.621 168.992 217.631 169.002C217.641 169.012 217.67 169.041 217.699 169.06C217.757 169.109 217.835 169.186 217.941 169.293C218.154 169.487 218.464 169.777 218.861 170.136C219.665 170.853 220.847 171.86 222.338 173.042C225.331 175.406 229.603 178.448 234.736 181.199C244.965 186.673 258.796 191.062 272.657 186.111L271.921 184.038C258.922 188.679 245.788 184.619 235.783 179.262C230.794 176.588 226.629 173.623 223.704 171.318C222.242 170.165 221.099 169.186 220.324 168.489C219.936 168.14 219.636 167.869 219.442 167.685C219.346 167.588 219.268 167.52 219.22 167.471C219.191 167.452 219.181 167.433 219.161 167.423C219.152 167.413 219.152 167.413 219.152 167.413C219.152 167.404 219.152 167.404 218.377 168.198ZM185.677 141.004C193.445 144.201 201.378 151.118 207.432 157.328C210.444 160.419 212.963 163.306 214.725 165.418C215.607 166.474 216.304 167.336 216.769 167.936C217.002 168.237 217.186 168.469 217.302 168.624C217.36 168.702 217.408 168.76 217.437 168.799C217.457 168.818 217.466 168.837 217.466 168.847L217.476 168.857C217.476 168.857 217.476 168.857 218.358 168.198C219.239 167.539 219.239 167.539 219.239 167.539L219.229 167.53C219.22 167.52 219.21 167.501 219.191 167.481C219.161 167.442 219.113 167.375 219.045 167.297C218.919 167.132 218.735 166.89 218.493 166.59C218.009 165.979 217.302 165.098 216.411 164.022C214.619 161.872 212.062 158.946 209.001 155.807C202.909 149.558 194.705 142.36 186.501 138.988L185.677 141.004ZM144.541 140.403C151.97 142.118 160.436 141.769 167.942 141.265C171.72 141.013 175.236 140.723 178.326 140.616C181.435 140.509 183.982 140.597 185.832 141.052L186.355 138.921C184.186 138.388 181.377 138.31 178.248 138.417C175.11 138.523 171.517 138.824 167.787 139.066C160.271 139.57 152.106 139.889 145.026 138.252L144.541 140.403ZM118.099 129.853C126.361 134.609 135.262 138.155 144.532 140.393L145.045 138.252C135.979 136.063 127.271 132.594 119.193 127.944L118.099 129.853ZM278.497 139.357C278.962 139.744 279.66 139.676 280.047 139.211C280.435 138.746 280.367 138.049 279.902 137.661L278.497 139.357ZM265.886 135.946L265.547 134.9C264.985 135.084 264.666 135.685 264.831 136.256L265.886 135.946ZM288.997 151.641L289.956 151.099C289.801 150.818 289.53 150.624 289.21 150.556L288.997 151.641ZM272.289 185.075L272.657 186.111L272.289 185.075ZM218.377 168.198L217.496 168.857C217.525 168.905 217.563 168.944 217.602 168.983L218.377 168.198ZM186.104 139.986L186.52 138.969C186.472 138.95 186.413 138.93 186.365 138.921L186.104 139.986ZM144.793 139.328L144.532 140.393H144.541L144.793 139.328ZM119.193 127.944C118.67 127.644 117.992 127.818 117.692 128.351C117.392 128.884 117.566 129.552 118.099 129.853L119.193 127.944Z" fill="black"/>
</g>
</g>
<defs>
<clipPath id="clip0_20_288">
<rect width="300" height="200" fill="white"/>
</clipPath>
<clipPath id="clip1_20_288">
<rect width="280" height="153.208" fill="white" transform="translate(20 47)"/>
</clipPath>
</defs>
</svg>
